<svg width="248" height="170" viewBox="0 0 248 170" fill="none" xmlns="http://www.w3.org/2000/svg">
<path d="M137.642 93.2068C198.591 93.2068 248 88.715 248 83.1742C248 77.6333 198.591 73.1416 137.642 73.1416C76.6923 73.1416 27.2832 77.6333 27.2832 83.1742C27.2832 88.715 76.6923 93.2068 137.642 93.2068Z" fill="#1D1D1B" fill-opacity="0.1"/>
<path d="M194.001 57.874C193.912 54.8494 193.734 51.6469 193.467 48.3555C193.29 46.2205 193.067 44.041 192.8 41.8171C191.332 30.3415 189.776 22.0239 188.308 16.0637C188.308 16.0637 188.308 16.0637 188.308 16.0193C188.174 15.441 187.997 14.9073 187.863 14.3735C187.774 14.0622 187.685 13.7508 187.596 13.4395C187.418 12.6833 187.24 12.0606 187.018 11.3934C186.973 11.26 186.929 11.0821 186.885 10.9487C186.618 10.0146 186.351 9.25845 186.084 8.50231C186.039 8.36887 185.995 8.27991 185.951 8.14648C185.728 7.52377 185.506 6.99002 185.283 6.45627C185.239 6.32284 185.194 6.23388 185.15 6.14492C184.616 4.89951 184.127 3.8765 183.638 3.12035C183.549 2.98692 183.504 2.85348 183.415 2.76452C183.015 2.23077 182.704 1.78599 182.348 1.51911C182.303 1.47463 182.214 1.38567 182.17 1.3412C181.858 1.1188 181.592 0.940882 181.369 0.807445C181.325 0.807445 181.28 0.762967 181.236 0.762967C181.191 0.762967 181.147 0.718489 181.102 0.718489C181.058 0.67401 181.058 0.67401 181.013 0.67401C180.969 0.67401 180.969 0.629532 180.924 0.629532C180.88 0.585053 180.835 0.58505 180.791 0.58505C180.569 0.540571 180.346 0.496094 180.079 0.496094H179.946C176.699 0.67401 170.65 7.39034 165.268 12.283C159.219 11.7048 149.745 11.3934 137.113 12.5054C131.731 7.56825 125.815 1.07432 122.701 1.07432C119.054 1.07432 116.697 7.70169 115.496 12.283C115.273 12.5944 115.051 12.9502 114.829 13.2616C110.559 19.3552 102.908 19.8 96.8146 15.5745C86.0507 8.14648 58.8741 -0.838278 37.88 6.67867C3.67563 18.9549 -11.981 62.6332 10.5254 89.543C25.2479 107.157 68.7929 99.1505 97.037 112.539C125.237 125.927 123.769 142.384 121.945 154.527C118.832 174.943 154.637 176.677 151.168 148.3C147.654 119.922 139.07 105.333 113.583 96.7486C88.1412 88.2086 37.9689 89.632 35.1668 82.7822H39.5701C46.8647 82.7822 61.3204 82.8267 78.1335 82.8267C112.827 82.8712 157.528 82.9601 169.671 82.8712C172.918 82.8267 183.504 82.9601 189.197 83.0046C191.332 83.0491 193.112 81.4034 193.334 79.3129C193.779 74.9984 194.313 67.259 194.001 57.874ZM36.5901 81.9371C37.3462 82.1595 38.1023 82.3819 38.8585 82.6043C38.1023 82.4264 37.3017 82.1595 36.5901 81.9371Z" fill="white"/>
<path d="M38.8583 82.6496C38.0576 82.4272 37.3015 82.2048 36.5898 81.9824C37.346 82.1603 38.1021 82.4272 38.8583 82.6496Z" fill="#F2F3F7"/>
<path d="M38.8583 82.6496C38.0576 82.4272 37.3015 82.2048 36.5898 81.9824C37.346 82.1603 38.1021 82.4272 38.8583 82.6496Z" fill="#1D1D1B"/>
<path d="M193.468 48.3568C193.468 48.3568 175.231 55.0731 168.782 48.3568C162.377 41.6405 158.285 41.0623 153.481 42.2187C148.677 43.3752 148.855 48.5347 138.536 52.271C128.217 55.9627 116.297 55.1176 105.666 44.754C92.2336 31.6327 63.4112 9.6601 47.4877 21.447C31.5642 33.234 31.5642 45.4657 47.4877 53.1605C59.8973 59.1652 55.0046 67.4383 52.2469 70.8187C51.7576 71.4414 52.2025 72.331 52.9586 72.331H69.6827C75.0647 72.331 79.2901 77.2237 78.2671 82.5167C78.2226 82.6501 78.2227 82.828 78.1782 82.9615C61.3651 82.917 46.9095 82.917 39.6149 82.917H35.2115C38.0582 89.7667 88.1859 88.3434 113.628 96.8834C139.07 105.423 147.654 120.012 151.213 148.435C154.682 176.812 118.921 175.077 121.99 154.662C123.814 142.563 125.281 126.062 97.0818 112.673C68.8821 99.2408 25.3372 107.247 10.5701 89.6778C-11.9807 62.7235 3.67588 19.0896 37.9247 6.81344C58.9188 -0.703513 86.0954 8.28124 96.8594 15.7092C102.953 19.9347 110.603 19.4899 114.873 13.3963C115.096 13.085 115.318 12.7291 115.541 12.4178C116.697 7.83645 119.054 1.20908 122.746 1.20908C125.904 1.20908 131.82 7.70302 137.157 12.6402C149.789 11.5727 159.263 11.8396 165.313 12.4178C170.739 7.5251 176.788 0.808775 179.991 0.630859H180.124C180.391 0.630859 180.613 0.675337 180.836 0.719816C180.88 0.719816 180.925 0.719815 180.969 0.764294C181.014 0.764294 181.014 0.808773 181.058 0.808773C181.103 0.808773 181.103 0.808775 181.147 0.853254C181.192 0.853254 181.236 0.897733 181.281 0.897733C181.325 0.897733 181.369 0.942211 181.414 0.942211C181.636 1.07565 181.903 1.25356 182.215 1.47596C182.259 1.52044 182.348 1.6094 182.392 1.65387C182.748 1.96523 183.06 2.41002 183.46 2.89929C183.549 2.98825 183.593 3.12168 183.682 3.25512C184.172 4.01126 184.705 4.9898 185.195 6.27969C185.239 6.36865 185.284 6.4576 185.328 6.59104C185.55 7.12479 185.773 7.70302 185.995 8.28124C186.04 8.41468 186.084 8.50364 186.129 8.63708C186.396 9.39322 186.662 10.1494 186.929 11.0834C186.974 11.2169 187.018 11.3948 187.063 11.5282C187.285 12.1954 187.463 12.8181 187.641 13.5742C187.73 13.8856 187.819 14.1969 187.908 14.5083C188.041 15.042 188.219 15.5758 188.353 16.154C188.353 16.1985 188.353 16.1985 188.353 16.1985C189.82 22.1587 191.377 30.4763 192.845 41.9518C193.067 44.0423 193.29 46.2218 193.468 48.3568Z" fill="#1D1D1B"/>
<path d="M181.858 76.2442C181.858 78.1124 182.615 79.8026 183.86 81.048C185.105 82.2934 186.796 83.0495 188.664 83.0495H204.765C208.501 83.0495 211.57 79.9805 211.57 76.2442C211.57 72.508 208.501 69.439 204.765 69.439H188.664C184.927 69.439 181.858 72.508 181.858 76.2442Z" fill="#1D1D1B"/>
<path d="M178.033 76.2442C178.033 78.1123 178.789 79.8025 180.035 81.0479C181.28 82.2933 182.97 83.0495 184.839 83.0495H201.741C200.584 81.1814 199.25 78.3792 199.472 75.3991C199.783 71.5739 197.204 70.0171 195.825 69.4834H184.839C181.058 69.4389 178.033 72.508 178.033 76.2442Z" fill="white"/>
<path d="M192.756 62.3667C192.756 62.3667 192.089 68.4158 196.003 69.5723C198.538 70.3284 188.664 81.4482 188.664 81.4482C188.664 81.4482 186.395 82.7381 184.349 82.6491C182.303 82.5602 154.593 68.6827 154.593 68.6827L192.756 62.3667Z" fill="white"/>
<path d="M160.509 76.2437C160.509 78.1118 161.265 79.802 162.51 81.0474C163.444 81.9815 164.645 82.6487 165.98 82.9156C166.38 82.9156 166.736 82.9156 167.092 82.9156C168.648 82.9156 171.895 82.9156 175.454 82.96C175.632 82.96 175.854 82.96 176.032 82.96C175.987 83.0045 175.988 83.049 175.943 83.0935H183.46C187.196 83.0935 190.265 80.0244 190.265 76.2882C190.265 72.7743 187.597 69.8832 184.172 69.5274C183.949 69.4829 183.682 69.4829 183.46 69.4829H167.359C163.578 69.4829 160.509 72.5075 160.509 76.2437Z" fill="#1D1D1B"/>
<path d="M159.353 82.9158C161.977 82.9158 164.245 82.9158 165.98 82.9158C166.38 82.9158 166.736 82.9158 167.092 82.9158C168.649 82.9158 171.896 82.9158 175.454 82.9602C175.632 82.9602 175.854 82.9602 176.032 82.9602C176.655 82.0707 177.055 80.8252 176.922 79.135C176.566 74.5982 179.813 70.4616 180.658 69.4831C180.792 69.3497 180.836 69.2607 180.836 69.2607C173.453 64.4125 157.396 68.5046 156.239 77.3114C155.928 79.9357 157.307 81.7593 159.353 82.9158Z" fill="white"/>
<path d="M182.881 14.4624L179.634 9.03594C179.145 8.19084 177.944 8.0574 177.277 8.81355L173.985 12.4163C173.274 13.217 173.63 14.5069 174.697 14.8182L181.236 16.6419C182.481 16.9977 183.548 15.6188 182.881 14.4624Z" fill="white"/>
<path d="M183.104 17.4877C183.104 17.4877 182.392 16.2423 180.435 16.0644C178.478 15.8865 178.256 15.0859 177.099 14.5521C175.943 14.0629 175.809 13.8405 174.341 14.0184C172.874 14.1963 171.272 14.4187 171.272 14.4187L183.104 17.4877Z" fill="#1D1D1B"/>
<path d="M121.056 15.5293L124.303 10.1028C124.792 9.25774 125.993 9.1243 126.66 9.88044L129.952 13.4832C130.663 14.2839 130.308 15.5738 129.24 15.8851L122.702 17.7087C121.456 18.0201 120.389 16.6412 121.056 15.5293Z" fill="white"/>
<path d="M120.833 18.5078C120.833 18.5078 121.545 17.2623 123.502 17.0844C125.459 16.9065 125.681 16.1059 126.838 15.5721C127.994 15.0829 128.128 14.8605 129.595 15.0384C131.063 15.2163 132.664 15.4387 132.664 15.4387L120.833 18.5078Z" fill="#1D1D1B"/>
<path d="M185.372 37.1021C185.327 36.7908 185.55 36.4794 185.861 36.4349L198.004 34.9227C198.36 34.8782 198.627 35.1006 198.671 35.4119C198.716 35.7233 198.493 36.0346 198.182 36.0791L186.039 37.5914C185.995 37.5914 185.995 37.5914 185.95 37.5914C185.683 37.5914 185.416 37.4135 185.372 37.1021Z" fill="#1D1D1B"/>
<path d="M197.96 42.3509L186.039 39.7711C185.728 39.6822 185.55 39.3708 185.595 39.0595C185.684 38.7481 185.995 38.5702 186.306 38.6147L198.227 41.1945C198.538 41.2834 198.716 41.5948 198.671 41.9061C198.583 42.173 198.36 42.3509 198.093 42.3509C198.004 42.3509 198.004 42.3509 197.96 42.3509Z" fill="#1D1D1B"/>
<path d="M186.752 38.57C186.752 38.2587 187.019 37.9918 187.33 37.9918L199.517 37.9028C199.829 37.9028 200.095 38.1697 200.095 38.4811C200.095 38.7924 199.829 39.0593 199.517 39.0593L187.286 39.1482C186.93 39.1482 186.707 38.8814 186.752 38.57Z" fill="#1D1D1B"/>
<path d="M170.517 41.3726C175.282 41.3726 179.146 37.5093 179.146 32.7437C179.146 27.978 175.282 24.1147 170.517 24.1147C165.751 24.1147 161.888 27.978 161.888 32.7437C161.888 37.5093 165.751 41.3726 170.517 41.3726Z" fill="white"/>
<path d="M170.516 37.8586C173.341 37.8586 175.632 35.5685 175.632 32.7435C175.632 29.9185 173.341 27.6284 170.516 27.6284C167.691 27.6284 165.401 29.9185 165.401 32.7435C165.401 35.5685 167.691 37.8586 170.516 37.8586Z" fill="#1D1D1B"/>
<path d="M173.808 31.2313C174.815 31.2313 175.632 30.4148 175.632 29.4076C175.632 28.4005 174.815 27.584 173.808 27.584C172.801 27.584 171.984 28.4005 171.984 29.4076C171.984 30.4148 172.801 31.2313 173.808 31.2313Z" fill="white"/>
<path d="M167.359 37.459C168.145 37.459 168.782 36.8217 168.782 36.0356C168.782 35.2495 168.145 34.6123 167.359 34.6123C166.573 34.6123 165.936 35.2495 165.936 36.0356C165.936 36.8217 166.573 37.459 167.359 37.459Z" fill="white"/>
<path d="M139.959 41.3726C144.725 41.3726 148.588 37.5093 148.588 32.7437C148.588 27.978 144.725 24.1147 139.959 24.1147C135.193 24.1147 131.33 27.978 131.33 32.7437C131.33 37.5093 135.193 41.3726 139.959 41.3726Z" fill="white"/>
<path d="M139.959 37.8586C142.784 37.8586 145.074 35.5685 145.074 32.7435C145.074 29.9185 142.784 27.6284 139.959 27.6284C137.134 27.6284 134.844 29.9185 134.844 32.7435C134.844 35.5685 137.134 37.8586 139.959 37.8586Z" fill="#1D1D1B"/>
<path d="M136.623 31.2313C137.631 31.2313 138.447 30.4148 138.447 29.4076C138.447 28.4005 137.631 27.584 136.623 27.584C135.616 27.584 134.8 28.4005 134.8 29.4076C134.8 30.4148 135.616 31.2313 136.623 31.2313Z" fill="white"/>
<path d="M143.073 37.459C143.859 37.459 144.496 36.8217 144.496 36.0356C144.496 35.2495 143.859 34.6123 143.073 34.6123C142.287 34.6123 141.649 35.2495 141.649 36.0356C141.649 36.8217 142.287 37.459 143.073 37.459Z" fill="white"/>
<path d="M154.594 49.1997C154.594 49.1997 155.884 49.3776 156.328 49.3776C156.773 49.3776 158.152 49.1997 158.152 49.1997C158.641 49.1997 159.042 49.6 159.042 50.0893C159.042 50.5786 158.597 50.8454 158.152 50.9789C158.152 50.9789 157.44 51.1568 156.373 51.1568C155.483 51.1568 154.594 50.9789 154.594 50.9789C154.06 50.8899 153.704 50.5786 153.704 50.0893C153.704 49.6 154.104 49.1997 154.594 49.1997Z" fill="#1D1D1B"/>
<path d="M154.593 48.978C154.638 48.978 155.928 49.1559 156.328 49.1559C156.773 49.1559 158.107 49.0225 158.107 49.0225C158.73 49.0225 159.264 49.5118 159.264 50.1345C159.264 50.6682 158.863 51.0685 158.196 51.2465C158.152 51.2465 157.44 51.4244 156.373 51.4244C155.483 51.4244 154.593 51.2909 154.549 51.2465C153.882 51.113 153.481 50.7127 153.481 50.1345C153.481 49.4673 153.971 48.978 154.593 48.978ZM156.373 50.9351C157.396 50.9351 158.107 50.8017 158.107 50.8017C158.33 50.7572 158.819 50.5348 158.819 50.1345C158.819 49.7787 158.508 49.4673 158.152 49.4673C158.107 49.4673 156.773 49.6452 156.328 49.6452C155.883 49.6452 154.727 49.5118 154.549 49.4673C154.193 49.4673 153.882 49.7787 153.882 50.1345C153.882 50.6682 154.416 50.8017 154.593 50.8017C154.638 50.8017 155.527 50.9351 156.373 50.9351Z" fill="#1D1D1B"/>
<path d="M155.795 38.6602C155.795 38.6602 157.485 48.0007 154.016 47.2446" stroke="#1D1D1B" stroke-width="2" stroke-miterlimit="10" stroke-linecap="round"/>
<path d="M156.639 38.6602C156.639 38.6602 154.949 48.0007 158.418 47.2446" stroke="#1D1D1B" stroke-width="2" stroke-miterlimit="10" stroke-linecap="round"/>
<path d="M155.973 38.5259L156.462 38.6593L156.24 39.6823L155.973 38.5259Z" fill="#1D1D1B"/>
<path d="M158.151 39.9929C158.151 39.9929 156.727 39.815 156.238 39.815C155.749 39.815 154.236 39.9929 154.236 39.9929C153.703 39.9929 153.258 39.5481 153.258 39.0144C153.258 38.4806 153.747 38.1693 154.236 38.0358C154.236 38.0358 155.037 37.8579 156.193 37.8579C157.172 37.8579 158.151 38.0358 158.151 38.0358C158.729 38.1248 159.129 38.4806 159.129 39.0144C159.173 39.5481 158.729 39.9929 158.151 39.9929Z" fill="white"/>
<path d="M158.151 40.2605C158.107 40.2605 156.683 40.0826 156.239 40.0826C155.749 40.0826 154.282 40.2605 154.282 40.2605C153.57 40.2605 153.036 39.7267 153.036 39.0151C153.036 38.4369 153.481 37.9921 154.193 37.8141C154.237 37.8141 155.038 37.6362 156.194 37.6362C157.173 37.6362 158.151 37.8141 158.196 37.8141C158.907 37.9476 159.397 38.3924 159.397 39.0151C159.397 39.6823 158.863 40.2605 158.151 40.2605ZM156.239 38.1255C155.127 38.1255 154.326 38.3034 154.326 38.3034C154.104 38.3479 153.525 38.5703 153.525 39.0596C153.525 39.4599 153.881 39.8157 154.282 39.8157C154.326 39.8157 155.749 39.6378 156.283 39.6378C156.728 39.6378 158.062 39.7712 158.196 39.8157C158.596 39.8157 158.907 39.4599 158.907 39.0596C158.907 38.4813 158.285 38.3479 158.107 38.3034C158.107 38.2589 157.173 38.1255 156.239 38.1255Z" fill="white"/>
</svg>